<mxfile host="app.diagrams.net" modified="2023-09-07T13:51:58.791Z" agent="Mozilla/5.0 (Windows NT 10.0; Win64; x64; rv:109.0) Gecko/20100101 Firefox/117.0" etag="kmnBpMskwEKXPMndnEmD" version="21.7.2" type="device">
  <diagram name="Page-1" id="13e1069c-82ec-6db2-03f1-153e76fe0fe0">
    <mxGraphModel dx="555" dy="966" grid="1" gridSize="10" guides="1" tooltips="1" connect="1" arrows="1" fold="1" page="1" pageScale="1" pageWidth="1100" pageHeight="850" background="none" math="0" shadow="0">
      <root>
        <mxCell id="0" />
        <mxCell id="1" parent="0" />
        <mxCell id="4HxHFRnomMjTDE2yFyBx-1" value=":DAL" style="shape=umlLifeline;perimeter=lifelinePerimeter;whiteSpace=wrap;html=1;container=1;collapsible=0;recursiveResize=0;outlineConnect=0;rounded=1;shadow=0;comic=0;labelBackgroundColor=none;strokeWidth=1;fontFamily=Verdana;fontSize=12;align=center;" parent="1" vertex="1">
          <mxGeometry x="415" y="120" width="100" height="539" as="geometry" />
        </mxCell>
        <mxCell id="4HxHFRnomMjTDE2yFyBx-69" value="" style="html=1;points=[];perimeter=orthogonalPerimeter;outlineConnect=0;targetShapes=umlLifeline;portConstraint=eastwest;newEdgeStyle={&quot;edgeStyle&quot;:&quot;elbowEdgeStyle&quot;,&quot;elbow&quot;:&quot;vertical&quot;,&quot;curved&quot;:0,&quot;rounded&quot;:0};" parent="4HxHFRnomMjTDE2yFyBx-1" vertex="1">
          <mxGeometry x="45" y="219" width="10" height="31" as="geometry" />
        </mxCell>
        <mxCell id="4HxHFRnomMjTDE2yFyBx-8" value=":DB" style="shape=umlLifeline;perimeter=lifelinePerimeter;whiteSpace=wrap;html=1;container=1;collapsible=0;recursiveResize=0;outlineConnect=0;rounded=1;shadow=0;comic=0;labelBackgroundColor=none;strokeWidth=1;fontFamily=Verdana;fontSize=12;align=center;" parent="1" vertex="1">
          <mxGeometry x="575" y="120" width="100" height="539" as="geometry" />
        </mxCell>
        <mxCell id="4HxHFRnomMjTDE2yFyBx-73" value="" style="endArrow=block;endFill=1;endSize=12;html=1;rounded=0;" parent="4HxHFRnomMjTDE2yFyBx-8" edge="1">
          <mxGeometry width="160" relative="1" as="geometry">
            <mxPoint x="-105" y="234" as="sourcePoint" />
            <mxPoint x="45" y="234" as="targetPoint" />
          </mxGeometry>
        </mxCell>
        <mxCell id="4HxHFRnomMjTDE2yFyBx-74" value="InsertDisponibilidades()" style="edgeLabel;html=1;align=center;verticalAlign=middle;resizable=0;points=[];" parent="4HxHFRnomMjTDE2yFyBx-73" vertex="1" connectable="0">
          <mxGeometry x="-0.15" relative="1" as="geometry">
            <mxPoint as="offset" />
          </mxGeometry>
        </mxCell>
        <mxCell id="4HxHFRnomMjTDE2yFyBx-11" value=":Agenda" style="shape=umlLifeline;perimeter=lifelinePerimeter;whiteSpace=wrap;html=1;container=1;collapsible=0;recursiveResize=0;outlineConnect=0;rounded=1;shadow=0;comic=0;labelBackgroundColor=none;strokeWidth=1;fontFamily=Verdana;fontSize=12;align=center;movable=1;resizable=1;rotatable=1;deletable=1;editable=1;locked=0;connectable=1;" parent="1" vertex="1">
          <mxGeometry x="275" y="120" width="100" height="539" as="geometry" />
        </mxCell>
        <mxCell id="4HxHFRnomMjTDE2yFyBx-15" value="" style="html=1;points=[];perimeter=orthogonalPerimeter;outlineConnect=0;targetShapes=umlLifeline;portConstraint=eastwest;newEdgeStyle={&quot;edgeStyle&quot;:&quot;elbowEdgeStyle&quot;,&quot;elbow&quot;:&quot;vertical&quot;,&quot;curved&quot;:0,&quot;rounded&quot;:0};" parent="4HxHFRnomMjTDE2yFyBx-11" vertex="1">
          <mxGeometry x="45" y="110" width="10" height="50" as="geometry" />
        </mxCell>
        <mxCell id="4HxHFRnomMjTDE2yFyBx-23" value="" style="html=1;points=[];perimeter=orthogonalPerimeter;outlineConnect=0;targetShapes=umlLifeline;portConstraint=eastwest;newEdgeStyle={&quot;edgeStyle&quot;:&quot;elbowEdgeStyle&quot;,&quot;elbow&quot;:&quot;vertical&quot;,&quot;curved&quot;:0,&quot;rounded&quot;:0};" parent="4HxHFRnomMjTDE2yFyBx-11" vertex="1">
          <mxGeometry x="50" y="130" width="10" height="30" as="geometry" />
        </mxCell>
        <mxCell id="4HxHFRnomMjTDE2yFyBx-24" value="GetAtribuicoes()" style="html=1;align=left;spacingLeft=2;endArrow=block;rounded=0;edgeStyle=orthogonalEdgeStyle;curved=0;rounded=0;" parent="4HxHFRnomMjTDE2yFyBx-11" target="4HxHFRnomMjTDE2yFyBx-23" edge="1">
          <mxGeometry relative="1" as="geometry">
            <mxPoint x="55" y="110" as="sourcePoint" />
            <Array as="points">
              <mxPoint x="85" y="140" />
            </Array>
          </mxGeometry>
        </mxCell>
        <mxCell id="4HxHFRnomMjTDE2yFyBx-63" value="" style="html=1;points=[];perimeter=orthogonalPerimeter;outlineConnect=0;targetShapes=umlLifeline;portConstraint=eastwest;newEdgeStyle={&quot;edgeStyle&quot;:&quot;elbowEdgeStyle&quot;,&quot;elbow&quot;:&quot;vertical&quot;,&quot;curved&quot;:0,&quot;rounded&quot;:0};" parent="4HxHFRnomMjTDE2yFyBx-11" vertex="1">
          <mxGeometry x="45" y="179" width="10" height="161" as="geometry" />
        </mxCell>
        <mxCell id="4HxHFRnomMjTDE2yFyBx-64" value="" style="endArrow=block;endFill=1;endSize=12;html=1;rounded=0;" parent="4HxHFRnomMjTDE2yFyBx-11" edge="1">
          <mxGeometry width="160" relative="1" as="geometry">
            <mxPoint x="-180" y="184" as="sourcePoint" />
            <mxPoint x="45" y="184" as="targetPoint" />
          </mxGeometry>
        </mxCell>
        <mxCell id="4HxHFRnomMjTDE2yFyBx-65" value="Define disponibilidade" style="edgeLabel;html=1;align=center;verticalAlign=middle;resizable=0;points=[];" parent="4HxHFRnomMjTDE2yFyBx-64" vertex="1" connectable="0">
          <mxGeometry x="-0.15" relative="1" as="geometry">
            <mxPoint as="offset" />
          </mxGeometry>
        </mxCell>
        <mxCell id="4HxHFRnomMjTDE2yFyBx-67" value="" style="html=1;points=[];perimeter=orthogonalPerimeter;outlineConnect=0;targetShapes=umlLifeline;portConstraint=eastwest;newEdgeStyle={&quot;edgeStyle&quot;:&quot;elbowEdgeStyle&quot;,&quot;elbow&quot;:&quot;vertical&quot;,&quot;curved&quot;:0,&quot;rounded&quot;:0};" parent="4HxHFRnomMjTDE2yFyBx-11" vertex="1">
          <mxGeometry x="50" y="199" width="10" height="40" as="geometry" />
        </mxCell>
        <mxCell id="4HxHFRnomMjTDE2yFyBx-68" value="SaveDispoLocal()" style="html=1;align=left;spacingLeft=2;endArrow=block;rounded=0;edgeStyle=orthogonalEdgeStyle;curved=0;rounded=0;" parent="4HxHFRnomMjTDE2yFyBx-11" target="4HxHFRnomMjTDE2yFyBx-67" edge="1">
          <mxGeometry relative="1" as="geometry">
            <mxPoint x="55" y="179" as="sourcePoint" />
            <Array as="points">
              <mxPoint x="85" y="209" />
            </Array>
          </mxGeometry>
        </mxCell>
        <mxCell id="4HxHFRnomMjTDE2yFyBx-25" value="" style="shape=umlLifeline;perimeter=lifelinePerimeter;whiteSpace=wrap;html=1;container=1;dropTarget=0;collapsible=0;recursiveResize=0;outlineConnect=0;portConstraint=eastwest;newEdgeStyle={&quot;edgeStyle&quot;:&quot;elbowEdgeStyle&quot;,&quot;elbow&quot;:&quot;vertical&quot;,&quot;curved&quot;:0,&quot;rounded&quot;:0};participant=umlActor;size=40;" parent="1" vertex="1">
          <mxGeometry x="78" y="130" width="22" height="529" as="geometry" />
        </mxCell>
        <mxCell id="4HxHFRnomMjTDE2yFyBx-62" value="" style="html=1;points=[];perimeter=orthogonalPerimeter;outlineConnect=0;targetShapes=umlLifeline;portConstraint=eastwest;newEdgeStyle={&quot;edgeStyle&quot;:&quot;elbowEdgeStyle&quot;,&quot;elbow&quot;:&quot;vertical&quot;,&quot;curved&quot;:0,&quot;rounded&quot;:0};" parent="4HxHFRnomMjTDE2yFyBx-25" vertex="1">
          <mxGeometry x="7" y="169" width="10" height="161" as="geometry" />
        </mxCell>
        <mxCell id="4HxHFRnomMjTDE2yFyBx-78" value="" style="html=1;points=[];perimeter=orthogonalPerimeter;outlineConnect=0;targetShapes=umlLifeline;portConstraint=eastwest;newEdgeStyle={&quot;edgeStyle&quot;:&quot;elbowEdgeStyle&quot;,&quot;elbow&quot;:&quot;vertical&quot;,&quot;curved&quot;:0,&quot;rounded&quot;:0};" parent="4HxHFRnomMjTDE2yFyBx-25" vertex="1">
          <mxGeometry x="382" y="399" width="10" height="31" as="geometry" />
        </mxCell>
        <mxCell id="4HxHFRnomMjTDE2yFyBx-79" value="" style="endArrow=block;endFill=1;endSize=12;html=1;rounded=0;" parent="4HxHFRnomMjTDE2yFyBx-25" edge="1">
          <mxGeometry width="160" relative="1" as="geometry">
            <mxPoint x="392" y="414" as="sourcePoint" />
            <mxPoint x="542" y="414" as="targetPoint" />
          </mxGeometry>
        </mxCell>
        <mxCell id="4HxHFRnomMjTDE2yFyBx-80" value="InsertDisponibilidades()" style="edgeLabel;html=1;align=center;verticalAlign=middle;resizable=0;points=[];" parent="4HxHFRnomMjTDE2yFyBx-79" vertex="1" connectable="0">
          <mxGeometry x="-0.15" relative="1" as="geometry">
            <mxPoint as="offset" />
          </mxGeometry>
        </mxCell>
        <mxCell id="4HxHFRnomMjTDE2yFyBx-81" value="" style="html=1;points=[];perimeter=orthogonalPerimeter;outlineConnect=0;targetShapes=umlLifeline;portConstraint=eastwest;newEdgeStyle={&quot;edgeStyle&quot;:&quot;elbowEdgeStyle&quot;,&quot;elbow&quot;:&quot;vertical&quot;,&quot;curved&quot;:0,&quot;rounded&quot;:0};" parent="4HxHFRnomMjTDE2yFyBx-25" vertex="1">
          <mxGeometry x="242" y="359" width="10" height="161" as="geometry" />
        </mxCell>
        <mxCell id="4HxHFRnomMjTDE2yFyBx-82" value="" style="endArrow=block;endFill=1;endSize=12;html=1;rounded=0;" parent="4HxHFRnomMjTDE2yFyBx-25" edge="1">
          <mxGeometry width="160" relative="1" as="geometry">
            <mxPoint x="17" y="364" as="sourcePoint" />
            <mxPoint x="242" y="364" as="targetPoint" />
          </mxGeometry>
        </mxCell>
        <mxCell id="4HxHFRnomMjTDE2yFyBx-83" value="Bloqueia disponibilidade" style="edgeLabel;html=1;align=center;verticalAlign=middle;resizable=0;points=[];" parent="4HxHFRnomMjTDE2yFyBx-82" vertex="1" connectable="0">
          <mxGeometry x="-0.15" relative="1" as="geometry">
            <mxPoint as="offset" />
          </mxGeometry>
        </mxCell>
        <mxCell id="4HxHFRnomMjTDE2yFyBx-84" value="" style="html=1;points=[];perimeter=orthogonalPerimeter;outlineConnect=0;targetShapes=umlLifeline;portConstraint=eastwest;newEdgeStyle={&quot;edgeStyle&quot;:&quot;elbowEdgeStyle&quot;,&quot;elbow&quot;:&quot;vertical&quot;,&quot;curved&quot;:0,&quot;rounded&quot;:0};" parent="4HxHFRnomMjTDE2yFyBx-25" vertex="1">
          <mxGeometry x="247" y="379" width="10" height="40" as="geometry" />
        </mxCell>
        <mxCell id="4HxHFRnomMjTDE2yFyBx-85" value="SaveDispoLocal()" style="html=1;align=left;spacingLeft=2;endArrow=block;rounded=0;edgeStyle=orthogonalEdgeStyle;curved=0;rounded=0;" parent="4HxHFRnomMjTDE2yFyBx-25" target="4HxHFRnomMjTDE2yFyBx-84" edge="1">
          <mxGeometry relative="1" as="geometry">
            <mxPoint x="252" y="359" as="sourcePoint" />
            <Array as="points">
              <mxPoint x="282" y="389" />
            </Array>
          </mxGeometry>
        </mxCell>
        <mxCell id="4HxHFRnomMjTDE2yFyBx-86" value="" style="html=1;points=[];perimeter=orthogonalPerimeter;outlineConnect=0;targetShapes=umlLifeline;portConstraint=eastwest;newEdgeStyle={&quot;edgeStyle&quot;:&quot;elbowEdgeStyle&quot;,&quot;elbow&quot;:&quot;vertical&quot;,&quot;curved&quot;:0,&quot;rounded&quot;:0};" parent="4HxHFRnomMjTDE2yFyBx-25" vertex="1">
          <mxGeometry x="7" y="359" width="10" height="161" as="geometry" />
        </mxCell>
        <mxCell id="4HxHFRnomMjTDE2yFyBx-87" value="" style="endArrow=block;endFill=1;endSize=12;html=1;rounded=0;exitX=0.9;exitY=0.007;exitDx=0;exitDy=0;exitPerimeter=0;" parent="4HxHFRnomMjTDE2yFyBx-25" edge="1">
          <mxGeometry width="160" relative="1" as="geometry">
            <mxPoint x="257" y="415" as="sourcePoint" />
            <mxPoint x="382" y="415" as="targetPoint" />
          </mxGeometry>
        </mxCell>
        <mxCell id="4HxHFRnomMjTDE2yFyBx-88" value="SetDisponibilidade()" style="edgeLabel;html=1;align=center;verticalAlign=middle;resizable=0;points=[];" parent="4HxHFRnomMjTDE2yFyBx-87" vertex="1" connectable="0">
          <mxGeometry x="-0.15" relative="1" as="geometry">
            <mxPoint as="offset" />
          </mxGeometry>
        </mxCell>
        <mxCell id="4HxHFRnomMjTDE2yFyBx-89" value="&lt;div style=&quot;font-size: 10px;&quot;&gt;&lt;font style=&quot;font-size: 10px;&quot;&gt;Nota:&lt;/font&gt;&lt;/div&gt;&lt;div style=&quot;font-size: 10px;&quot;&gt;&lt;font style=&quot;font-size: 10px;&quot;&gt;Disponibilidade é obj():&lt;/font&gt;&lt;/div&gt;&lt;div style=&quot;font-size: 10px;&quot;&gt;&lt;font style=&quot;font-size: 10px;&quot;&gt;_id;&lt;br&gt;&lt;/font&gt;&lt;/div&gt;&lt;div style=&quot;font-size: 10px;&quot;&gt;&lt;font style=&quot;font-size: 10px;&quot;&gt;_dia;&lt;/font&gt;&lt;/div&gt;&lt;div style=&quot;font-size: 10px;&quot;&gt;&lt;font style=&quot;font-size: 10px;&quot;&gt;_numeroSemana;&lt;/font&gt;&lt;/div&gt;&lt;div style=&quot;font-size: 10px;&quot;&gt;&lt;div style=&quot;font-size: 10px;&quot;&gt;&lt;font style=&quot;font-size: 10px;&quot;&gt;_bloqueada;&lt;br&gt;&lt;/font&gt;&lt;/div&gt;&lt;/div&gt;&lt;div style=&quot;font-size: 10px;&quot;&gt;&lt;font style=&quot;font-size: 10px;&quot;&gt;_idHorário;&lt;br&gt;&lt;/font&gt;&lt;/div&gt;&lt;div style=&quot;font-size: 10px;&quot;&gt;&lt;font style=&quot;font-size: 10px;&quot;&gt;_idDisponibilidade;&lt;/font&gt;&lt;/div&gt;&lt;div style=&quot;font-size: 10px;&quot;&gt;&lt;font style=&quot;font-size: 10px;&quot;&gt;_idFormador.&lt;/font&gt;&lt;/div&gt;" style="shape=note;whiteSpace=wrap;html=1;size=14;verticalAlign=top;align=left;spacingTop=-6;rounded=0;shadow=0;comic=0;labelBackgroundColor=none;strokeWidth=1;fontFamily=Verdana;fontSize=12" parent="4HxHFRnomMjTDE2yFyBx-25" vertex="1">
          <mxGeometry x="23" y="380" width="149" height="119" as="geometry" />
        </mxCell>
        <mxCell id="4HxHFRnomMjTDE2yFyBx-90" value="SetDisponibilidade()" style="endArrow=open;endSize=12;dashed=1;html=1;rounded=0;" parent="4HxHFRnomMjTDE2yFyBx-25" edge="1">
          <mxGeometry x="-0.0026" width="160" relative="1" as="geometry">
            <mxPoint x="247" y="514" as="sourcePoint" />
            <mxPoint x="17" y="514" as="targetPoint" />
            <mxPoint as="offset" />
          </mxGeometry>
        </mxCell>
        <mxCell id="4HxHFRnomMjTDE2yFyBx-43" value="Formador" style="text;html=1;align=center;verticalAlign=middle;resizable=0;points=[];autosize=1;strokeColor=none;fillColor=none;" parent="1" vertex="1">
          <mxGeometry x="50" y="158" width="80" height="30" as="geometry" />
        </mxCell>
        <mxCell id="4HxHFRnomMjTDE2yFyBx-44" value="" style="endArrow=block;endFill=1;endSize=12;html=1;rounded=0;" parent="1" edge="1">
          <mxGeometry width="160" relative="1" as="geometry">
            <mxPoint x="95" y="235" as="sourcePoint" />
            <mxPoint x="320" y="235" as="targetPoint" />
          </mxGeometry>
        </mxCell>
        <mxCell id="4HxHFRnomMjTDE2yFyBx-45" value="Pede Visualização Alocações" style="edgeLabel;html=1;align=center;verticalAlign=middle;resizable=0;points=[];" parent="4HxHFRnomMjTDE2yFyBx-44" vertex="1" connectable="0">
          <mxGeometry x="-0.15" relative="1" as="geometry">
            <mxPoint as="offset" />
          </mxGeometry>
        </mxCell>
        <mxCell id="4HxHFRnomMjTDE2yFyBx-46" value="GetAtribuicoes()" style="endArrow=open;endSize=12;dashed=1;html=1;rounded=0;" parent="1" edge="1">
          <mxGeometry x="-0.0026" width="160" relative="1" as="geometry">
            <mxPoint x="320" y="275" as="sourcePoint" />
            <mxPoint x="95" y="275" as="targetPoint" />
            <mxPoint as="offset" />
          </mxGeometry>
        </mxCell>
        <mxCell id="4HxHFRnomMjTDE2yFyBx-56" value="" style="html=1;points=[];perimeter=orthogonalPerimeter;outlineConnect=0;targetShapes=umlLifeline;portConstraint=eastwest;newEdgeStyle={&quot;edgeStyle&quot;:&quot;elbowEdgeStyle&quot;,&quot;elbow&quot;:&quot;vertical&quot;,&quot;curved&quot;:0,&quot;rounded&quot;:0};" parent="1" vertex="1">
          <mxGeometry x="85" y="230" width="10" height="50" as="geometry" />
        </mxCell>
        <mxCell id="4HxHFRnomMjTDE2yFyBx-58" value="&lt;div&gt;Nota:&lt;/div&gt;Inicio de sistema carrega info da BD (SÒ dispo e info de formador) para listas de objetos locais." style="shape=note;whiteSpace=wrap;html=1;size=14;verticalAlign=top;align=left;spacingTop=-6;rounded=0;shadow=0;comic=0;labelBackgroundColor=none;strokeWidth=1;fontFamily=Verdana;fontSize=12" parent="1" vertex="1">
          <mxGeometry x="41" y="39" width="174" height="80" as="geometry" />
        </mxCell>
        <mxCell id="4HxHFRnomMjTDE2yFyBx-59" value="&lt;div style=&quot;font-size: 10px;&quot;&gt;&lt;font style=&quot;font-size: 10px;&quot;&gt;Nota:&lt;/font&gt;&lt;/div&gt;&lt;font style=&quot;font-size: 10px;&quot;&gt;Só por Professor&lt;br&gt;&lt;/font&gt;" style="shape=note;whiteSpace=wrap;html=1;size=14;verticalAlign=top;align=left;spacingTop=-6;rounded=0;shadow=0;comic=0;labelBackgroundColor=none;strokeWidth=1;fontFamily=Verdana;fontSize=12" parent="1" vertex="1">
          <mxGeometry x="332" y="189" width="97" height="30" as="geometry" />
        </mxCell>
        <mxCell id="4HxHFRnomMjTDE2yFyBx-70" value="" style="endArrow=block;endFill=1;endSize=12;html=1;rounded=0;exitX=0.9;exitY=0.007;exitDx=0;exitDy=0;exitPerimeter=0;" parent="1" edge="1">
          <mxGeometry width="160" relative="1" as="geometry">
            <mxPoint x="335" y="355" as="sourcePoint" />
            <mxPoint x="460" y="355" as="targetPoint" />
          </mxGeometry>
        </mxCell>
        <mxCell id="4HxHFRnomMjTDE2yFyBx-71" value="SetDisponibilidade()" style="edgeLabel;html=1;align=center;verticalAlign=middle;resizable=0;points=[];" parent="4HxHFRnomMjTDE2yFyBx-70" vertex="1" connectable="0">
          <mxGeometry x="-0.15" relative="1" as="geometry">
            <mxPoint as="offset" />
          </mxGeometry>
        </mxCell>
        <mxCell id="4HxHFRnomMjTDE2yFyBx-72" value="&lt;div style=&quot;font-size: 10px;&quot;&gt;&lt;font style=&quot;font-size: 10px;&quot;&gt;Nota:&lt;/font&gt;&lt;/div&gt;&lt;div style=&quot;font-size: 10px;&quot;&gt;&lt;font style=&quot;font-size: 10px;&quot;&gt;Disponibilidade é obj():&lt;/font&gt;&lt;/div&gt;&lt;div style=&quot;font-size: 10px;&quot;&gt;&lt;font style=&quot;font-size: 10px;&quot;&gt;_id;&lt;br&gt;&lt;/font&gt;&lt;/div&gt;&lt;div style=&quot;font-size: 10px;&quot;&gt;&lt;font style=&quot;font-size: 10px;&quot;&gt;_dataDisponibilidade;&lt;/font&gt;&lt;/div&gt;&lt;div style=&quot;font-size: 10px;&quot;&gt;&lt;div style=&quot;font-size: 10px;&quot;&gt;&lt;font style=&quot;font-size: 10px;&quot;&gt;_bloqueada;&lt;br&gt;&lt;/font&gt;&lt;/div&gt;&lt;/div&gt;&lt;div style=&quot;font-size: 10px;&quot;&gt;&lt;font style=&quot;font-size: 10px;&quot;&gt;_idHorário;&lt;br&gt;&lt;/font&gt;&lt;/div&gt;&lt;div style=&quot;font-size: 10px;&quot;&gt;&lt;font style=&quot;font-size: 10px;&quot;&gt;_idDisponibilidade;&lt;/font&gt;&lt;/div&gt;&lt;div style=&quot;font-size: 10px;&quot;&gt;&lt;font style=&quot;font-size: 10px;&quot;&gt;_idFormador.&lt;/font&gt;&lt;/div&gt;" style="shape=note;whiteSpace=wrap;html=1;size=14;verticalAlign=top;align=left;spacingTop=-6;rounded=0;shadow=0;comic=0;labelBackgroundColor=none;strokeWidth=1;fontFamily=Verdana;fontSize=12" parent="1" vertex="1">
          <mxGeometry x="101" y="320" width="149" height="119" as="geometry" />
        </mxCell>
        <mxCell id="4HxHFRnomMjTDE2yFyBx-76" value="SetDisponibilidade()" style="endArrow=open;endSize=12;dashed=1;html=1;rounded=0;" parent="1" edge="1">
          <mxGeometry x="-0.0026" width="160" relative="1" as="geometry">
            <mxPoint x="325" y="454" as="sourcePoint" />
            <mxPoint x="95" y="454" as="targetPoint" />
            <mxPoint as="offset" />
          </mxGeometry>
        </mxCell>
      </root>
    </mxGraphModel>
  </diagram>
</mxfile>
